<svg width="127" height="18" viewBox="0 0 127 18" fill="transparent" xmlns="http://www.w3.org/2000/svg">
<path d="M21.9427 9.01674V17.5484H17.6391V0.201796C17.6391 -0.0275486 17.7578 -0.0437378 17.9952 0.153229L28.7394 9.01674V0.423047H33.043V17.7939C33.043 18.0233 32.927 18.0448 32.6976 17.856L21.9427 9.01674Z" fill="url(#paint0_linear_47_19359)"/>
<path d="M2.11537 16.086C0.706922 14.8718 0 13.153 0 10.9217V0.423041H4.5842V10.8731C4.5842 12.9048 5.53126 13.922 7.42269 13.922C9.3249 13.922 10.2747 12.9048 10.2747 10.8731V0.423041H14.8481V10.9217C14.8481 13.1503 14.1465 14.8718 12.7462 16.086C11.4268 17.2246 9.65138 17.7939 7.42269 17.7939C5.19399 17.7939 3.42668 17.2246 2.11537 16.086Z" fill="url(#paint1_linear_47_19359)"/>
<path d="M40.4192 0.423041H35.835V17.5484H40.4192V0.423041Z" fill="url(#paint2_linear_47_19359)"/>
<path d="M47.724 17.4999C47.0035 17.3273 46.3344 17.0736 45.7192 16.7391C45.1688 16.4531 44.6696 16.1131 44.219 15.7192C43.8413 15.3819 43.5067 15.0176 43.2099 14.6264L46.5287 12.1441C47.0035 12.7269 47.4919 13.164 47.9911 13.4608C48.6144 13.8223 49.3186 14.0004 50.1064 14.0004C51.55 14.0004 52.2704 13.5498 52.2704 12.6486C52.2704 12.0496 51.7092 11.564 50.5867 11.1862L48.5712 10.509C47.2356 10.0584 46.2157 9.44319 45.5115 8.66612C44.7155 7.78921 44.3189 6.68296 44.3189 5.34736C44.3189 3.74194 44.9125 2.4657 46.1024 1.52404C47.1843 0.663322 48.5361 0.234311 50.1604 0.234311C51.5527 0.234311 52.7534 0.463657 53.7625 0.922347C54.5746 1.292 55.2708 1.81544 55.8536 2.49538L53.2309 5.24213C52.837 4.83201 52.4485 4.53251 52.0626 4.34364C51.5958 4.11429 51.0454 3.99827 50.414 3.99827C49.3078 3.99827 48.7547 4.3922 48.7547 5.17737C48.7547 5.75209 49.1567 6.173 49.9581 6.44282L52.2191 7.19291C53.8839 7.74334 55.0765 8.44756 55.7969 9.30828C56.4688 10.1042 56.806 11.1269 56.806 12.3815C56.806 14.0382 56.2907 15.3306 55.2573 16.2669C54.1348 17.2841 52.4862 17.7914 50.3142 17.7914C49.3995 17.7941 48.5361 17.6969 47.724 17.4999Z" fill="#F6B500"/>
<path d="M75.2192 13.7008C73.6137 16.4125 71.1044 17.7697 67.6966 17.7697C65.2386 17.7697 63.1529 16.9494 61.4396 15.3116C59.6696 13.6307 58.7846 11.5261 58.7846 8.9925C58.7846 6.467 59.6534 4.36242 61.391 2.67336C63.072 1.04366 65.0902 0.226116 67.4511 0.226116C69.1968 0.226116 70.7132 0.57418 72.0002 1.27031C73.1227 1.8774 74.0724 2.75431 74.8522 3.90103L71.3985 6.23766C71.0046 5.63057 70.5459 5.16918 70.0225 4.84809C69.3425 4.42178 68.5115 4.20863 67.5267 4.20863C66.2882 4.20863 65.298 4.66732 64.5506 5.5847C63.8302 6.4697 63.4686 7.60563 63.4686 8.9898C63.4686 10.3659 63.8409 11.5018 64.5883 12.3949C65.3681 13.3285 66.3961 13.7953 67.6751 13.7953C68.7085 13.7953 69.5638 13.5686 70.2437 13.118C70.8103 12.7403 71.296 12.1763 71.7061 11.4209L75.2192 13.7008Z" fill="#F6B500"/>
<path d="M79.7206 15.3116C77.8939 13.6226 76.9792 11.518 76.9792 8.9925C76.9792 6.45891 77.8939 4.35433 79.7206 2.67336C81.4987 1.04366 83.6491 0.226116 86.1746 0.226116C88.6893 0.226116 90.8371 1.04097 92.6152 2.67336C94.4418 4.35433 95.3565 6.45891 95.3565 8.9925C95.3565 11.518 94.4418 13.6226 92.6152 15.3116C90.8371 16.9494 88.6893 17.7697 86.1746 17.7697C83.6518 17.7697 81.4987 16.9494 79.7206 15.3116ZM89.4934 12.3976C90.2812 11.5207 90.6725 10.3848 90.6725 8.9925C90.6725 7.60024 90.2785 6.4643 89.4934 5.5874C88.6731 4.67001 87.5669 4.21132 86.1746 4.21132C84.7743 4.21132 83.6626 4.67001 82.8424 5.5874C82.0545 6.4643 81.6633 7.60024 81.6633 8.9925C81.6633 10.3848 82.0572 11.5207 82.8424 12.3976C83.6626 13.3312 84.7716 13.798 86.1746 13.798C87.5669 13.798 88.6758 13.3312 89.4934 12.3976Z" fill="#F6B500"/>
<path d="M111.794 17.5484H106.84L104.444 13.6279H102.736V17.5484H98.1521V0.423041H104.644C106.889 0.423041 108.667 1.0706 109.978 2.36573C111.225 3.5961 111.848 5.18802 111.848 7.1469C111.848 9.70477 110.815 11.553 108.75 12.6917L111.794 17.5484ZM104.417 9.97459C106.295 9.97459 107.231 9.03293 107.231 7.1469C107.231 5.25278 106.292 4.30842 104.417 4.30842H102.734V9.97459H104.417Z" fill="#F6B500"/>
<path d="M114.634 0.423041H126.644V4.28413H119.219V8.25585H125.414V11.9065H119.219V13.7008H127V17.5484H114.634V0.423041Z" fill="#F6B500"/>
<defs>
<linearGradient id="paint0_linear_47_19359" x1="12.0729" y1="-1.62999" x2="27.6834" y2="48.4004" gradientUnits="userSpaceOnUse">
<stop stop-color="#E7EFFF"/>
<stop offset="1" stop-color="#3CA2FF"/>
</linearGradient>
<linearGradient id="paint1_linear_47_19359" x1="12.0729" y1="-1.62999" x2="27.6834" y2="48.4004" gradientUnits="userSpaceOnUse">
<stop stop-color="#E7EFFF"/>
<stop offset="1" stop-color="#3CA2FF"/>
</linearGradient>
<linearGradient id="paint2_linear_47_19359" x1="12.0729" y1="-1.62999" x2="27.6834" y2="48.4004" gradientUnits="userSpaceOnUse">
<stop stop-color="#E7EFFF"/>
<stop offset="1" stop-color="#3CA2FF"/>
</linearGradient>
</defs>
</svg>
